<svg xmlns="http://www.w3.org/2000/svg" xml:space="preserve" width="1500" height="385" data-id="lg_oXHetU2yQdC3GFQEfo" data-version="1"><g data-padding="20"><g fill="#1f299c" stroke="null" transform="translate(10 7.306)scale(.96205)"><filter id="a" width="176%" height="246%" x="-38%" y="-73%"><feGaussianBlur in="SourceAlpha" stdDeviation="5"/><feOffset dx="2" dy="2" result="oBlur"/><feFlood flood-color="#fff" flood-opacity="0"/><feComposite in2="oBlur" operator="in"/><feMerge><feMergeNode/><feMergeNode in="SourceGraphic"/></feMerge></filter><path d="M730.331 384.833q4.27 0 5.94-1.61 1.66-1.62 1.66-3.96 0-2.5-1.53-3.52-1.54-1.02-5.23-1.92-2.65-.65-4.14-1.38t-1.49-2.43q0-1.34 1.22-2.19 1.23-.85 3.49-.85 2.24 0 3.46.99 1.23.99 1.23 4.23h2.98q0-3.71-1.67-5.49-1.66-1.78-5.97-1.78-4.21 0-5.92 1.59-1.7 1.58-1.7 3.82 0 2.46 1.55 3.55t5.14 1.98q2.69.64 4.17 1.34 1.47.71 1.47 2.47 0 1.44-1.2 2.27-1.21.84-3.49.84-2.29 0-3.48-1-1.19-1.01-1.19-4.35h-2.98q0 3.92 1.65 5.66t6.03 1.74Zm10.34-19.75v19.63h8.24q3.71 0 5.32-2.12 1.6-2.12 1.6-7.69 0-5.59-1.6-7.7-1.6-2.12-5.32-2.12Zm7.46 17.57h-4.51v-15.5h4.51q2.38 0 3.56 1.41 1.18 1.42 1.18 6.34 0 4.9-1.18 6.32-1.18 1.43-3.56 1.43Zm17.68 2.18q4.8-.03 5.87-3.1l.31 2.98h1.73v-9.52h-7.33v1.82h4.26v1.44q-.09 2.25-1.17 3.29t-3.41 1.04q-2.49 0-3.74-1.64-1.25-1.65-1.25-6.21 0-4.9 1.25-6.43t3.74-1.53q2.4 0 3.5 1.33t1.17 4.11h2.98q-.07-3.17-1.76-5.33t-5.9-2.16q-4.44 0-6.21 2.35-1.76 2.35-1.76 7.57 0 5.18 1.74 7.58 1.73 2.41 5.98 2.41Zm18.26-2.18v2.06h11.88v-2.06h-4.44v-17.6h-2.45l-5.09 1.25v2.21l4.6-1.04v15.18Zm20.87 2.27q4.03 0 5.35-1.52 1.31-1.52 1.31-4.27 0-2.02-1.07-3.11-1.08-1.08-3.3-1.14 2.21-.08 3.29-1.22 1.08-1.13 1.08-3.17 0-2.56-1.33-4.06-1.33-1.49-5.33-1.49-3.85 0-5.27 1.72t-1.42 5.37h2.94q0-3.24.95-4.16.96-.91 2.82-.91 1.89 0 2.8.85.9.85.9 3.13 0 1.6-.95 2.29t-3.47.75v1.89q2.52.05 3.47.68t.95 2.27q0 2.37-.88 3.22-.89.84-2.82.84-1.94 0-2.85-.87-.92-.87-.92-3.83h-2.94q0 3.44 1.38 5.09 1.37 1.65 5.31 1.65Z" filter="url(#a)" font-family="Anybody" font-size="29.084"/></g><path fill="#1f299c" stroke="null" stroke-width=".962" d="M520.474 320.657q0 5.032-3.646 7.841-3.656 2.819-9.909 2.819-6.773 0-10.429-1.751v-4.272q2.348.991 5.109 1.569 2.77.567 5.474.567 4.435 0 6.677-1.683 2.241-1.674 2.241-4.676 0-1.982-.798-3.242-.79-1.27-2.656-2.338t-5.666-2.424q-5.32-1.905-7.6-4.503-2.28-2.607-2.28-6.811 0-4.406 3.31-7.004 3.309-2.607 8.754-2.607 5.685 0 10.457 2.078l-1.385 3.858q-4.714-1.982-9.178-1.982-3.512 0-5.493 1.52-1.982 1.51-1.982 4.195 0 1.982.731 3.242.731 1.27 2.463 2.318 1.731 1.059 5.3 2.338 5.994 2.136 8.255 4.59 2.251 2.443 2.251 6.358Zm6.83-18.433h4.378v18.54q0 3.491 1.588 5.204 1.597 1.722 4.983 1.722 4.483 0 6.551-2.444 2.079-2.453 2.079-8.004v-15.018h4.32v28.573h-3.57l-.625-3.838h-.231q-1.328 2.116-3.695 3.232-2.357 1.126-5.377 1.126-5.215 0-7.812-2.482-2.588-2.473-2.588-7.918Zm51.509 20.78q0 3.984-2.973 6.148t-8.34 2.165q-5.686 0-8.861-1.8v-4.011q2.059 1.039 4.416 1.636 2.357.606 4.55.606 3.386 0 5.214-1.088 1.819-1.077 1.819-3.29 0-1.674-1.443-2.857-1.453-1.183-5.648-2.8-3.983-1.49-5.666-2.597t-2.501-2.511q-.818-1.414-.818-3.367 0-3.492 2.838-5.513t7.792-2.02q4.618 0 9.015 1.876l-1.53 3.521q-4.3-1.77-7.802-1.77-3.069 0-4.637.962-1.559.962-1.559 2.655 0 1.145.587 1.953t1.886 1.54 5.002 2.116q5.09 1.847 6.87 3.723 1.789 1.876 1.789 4.724Zm16.259 4.744q1.154 0 2.222-.174t1.693-.346v3.31q-.702.336-2.078.558-1.366.22-2.463.22-8.283 0-8.283-8.735v-16.99h-4.098v-2.087l4.098-1.8 1.818-6.098h2.511v6.618h8.283v3.368h-8.283v16.807q0 2.578 1.222 3.963t3.358 1.386Zm30.4 3.05h-3.213l-.856-4.07h-.212q-2.136 2.684-4.262 3.636-2.116.953-5.3.953-4.253 0-6.658-2.194-2.415-2.184-2.415-6.224 0-8.659 13.844-9.072l4.849-.154v-1.78q0-3.358-1.453-4.964-1.443-1.597-4.627-1.597-3.57 0-8.072 2.184l-1.337-3.31q2.116-1.145 4.627-1.799 2.521-.654 5.051-.654 5.109 0 7.571 2.27t2.463 7.274Zm-12.987-3.05q4.04 0 6.35-2.223 2.308-2.212 2.308-6.195v-2.588l-4.33.183q-5.156.182-7.436 1.606t-2.28 4.416q0 2.347 1.414 3.57 1.424 1.23 3.974 1.23Zm26.225-25.524v28.573h-4.33v-28.573Zm-4.695-7.744q0-1.482.731-2.174t1.828-.693q1.04 0 1.8.712.75.702.75 2.155 0 1.462-.75 2.184-.76.712-1.8.712-1.096 0-1.828-.712-.73-.722-.73-2.184Zm37.751 36.317h-4.33v-18.48q0-3.493-1.586-5.215-1.597-1.722-4.984-1.722-4.483 0-6.57 2.424-2.079 2.425-2.079 8.005v14.988h-4.329v-28.573h3.521l.702 3.916h.203q1.337-2.117 3.732-3.271 2.396-1.164 5.34-1.164 5.166 0 7.773 2.492 2.607 2.482 2.607 7.956Zm29.66 0h-3.203l-.866-4.07h-.202q-2.146 2.685-4.262 3.637-2.126.953-5.31.953-4.243 0-6.658-2.194-2.415-2.184-2.415-6.224 0-8.659 13.844-9.072l4.849-.154v-1.78q0-3.358-1.443-4.964-1.453-1.597-4.628-1.597-3.569 0-8.081 2.184l-1.328-3.31q2.107-1.145 4.628-1.799 2.51-.654 5.041-.654 5.108 0 7.571 2.27t2.463 7.274Zm-12.978-3.05q4.04 0 6.34-2.222 2.309-2.212 2.309-6.195v-2.588l-4.33.183q-5.156.182-7.436 1.606t-2.28 4.416q0 2.347 1.424 3.57 1.414 1.23 3.973 1.23Zm35.182-25.994q5.638 0 8.745 3.848 3.117 3.848 3.117 10.881 0 7.042-3.136 10.939-3.146 3.896-8.726 3.896-2.78 0-5.089-1.03t-3.877-3.165h-.308l-.914 3.675h-3.098v-40.56h4.32v9.852q0 3.31-.202 5.945h.202q3.03-4.281 8.966-4.281Zm-.625 3.627q-4.426 0-6.378 2.54-1.963 2.54-1.963 8.562t2.01 8.62q2.011 2.588 6.437 2.588 3.992 0 5.945-2.906t1.953-8.35q0-5.58-1.953-8.322-1.953-2.732-6.051-2.732Zm24.378-15.143v40.56h-4.329v-40.56Zm21.242 41.08q-6.33 0-9.995-3.858t-3.666-10.717q0-6.908 3.406-10.968 3.396-4.07 9.13-4.07 5.378 0 8.504 3.532t3.127 9.322v2.732h-19.684q.135 5.032 2.54 7.639 2.415 2.607 6.792 2.607 4.618 0 9.13-1.924v3.858q-2.3.981-4.348 1.414-2.04.433-4.936.433Zm-1.173-25.985q-3.445 0-5.484 2.241-2.05 2.242-2.415 6.196h14.94q0-4.089-1.827-6.263t-5.214-2.174Zm55.077 15.325q0 5.032-3.646 7.841-3.656 2.819-9.91 2.819-6.772 0-10.428-1.751v-4.272q2.347.991 5.108 1.569 2.771.567 5.475.567 4.435 0 6.676-1.683 2.242-1.674 2.242-4.676 0-1.982-.799-3.242-.789-1.27-2.655-2.338t-5.666-2.424q-5.32-1.905-7.6-4.503-2.28-2.607-2.28-6.811 0-4.406 3.309-7.004 3.31-2.607 8.754-2.607 5.686 0 10.458 2.078l-1.386 3.858q-4.714-1.982-9.168-1.982-3.52 0-5.503 1.52-1.982 1.51-1.982 4.195 0 1.982.732 3.242.73 1.27 2.462 2.318 1.732 1.059 5.301 2.338 5.994 2.136 8.255 4.59 2.25 2.443 2.25 6.358Zm18.558 10.66q-6.205 0-9.601-3.82-3.406-3.819-3.406-10.803 0-7.168 3.454-11.083 3.453-3.906 9.841-3.906 2.06 0 4.118.442t3.233 1.04l-1.328 3.675q-1.434-.568-3.127-.943-1.693-.385-3.001-.385-8.707 0-8.707 11.102 0 5.272 2.126 8.081 2.126 2.819 6.292 2.819 3.579 0 7.33-1.54v3.83q-2.866 1.49-7.224 1.49Zm37.876-.52h-4.33v-18.48q0-3.493-1.587-5.215t-4.974-1.722q-4.512 0-6.59 2.453-2.068 2.444-2.068 8.024v14.94h-4.33v-40.56h4.33v12.276q0 2.213-.212 3.675h.26q1.28-2.059 3.637-3.242 2.366-1.193 5.387-1.193 5.234 0 7.86 2.492 2.617 2.491 2.617 7.908Zm33.546-14.315q0 6.984-3.52 10.91-3.512 3.925-9.717 3.925-3.839 0-6.802-1.8-2.973-1.798-4.59-5.165-1.615-3.358-1.615-7.87 0-6.984 3.492-10.88t9.697-3.897q5.994 0 9.525 3.983 3.53 3.992 3.53 10.794Zm-21.761 0q0 5.474 2.184 8.341 2.193 2.867 6.445 2.867 4.243 0 6.446-2.848 2.203-2.857 2.203-8.36 0-5.445-2.203-8.274t-6.503-2.828q-4.243 0-6.408 2.79t-2.164 8.312Zm33.672-26.245v40.56h-4.32v-40.56Zm29.958 40.56h-3.213l-.857-4.07h-.211q-2.136 2.685-4.262 3.637t-5.301.953q-4.252 0-6.658-2.194-2.414-2.184-2.414-6.224 0-8.659 13.844-9.072l4.848-.154v-1.78q0-3.358-1.452-4.964-1.443-1.597-4.628-1.597-3.569 0-8.081 2.184l-1.328-3.31q2.117-1.145 4.628-1.799 2.52-.654 5.041-.654 5.108 0 7.571 2.27 2.473 2.27 2.473 7.274Zm-12.988-3.05q4.04 0 6.35-2.222 2.309-2.212 2.309-6.195v-2.588l-4.33.183q-5.156.182-7.446 1.606-2.28 1.424-2.28 4.416 0 2.347 1.424 3.57 1.424 1.23 3.973 1.23Zm34.932-26.042q1.905 0 3.415.308l-.606 4.021q-1.77-.394-3.126-.394-3.464 0-5.927 2.819-2.462 2.809-2.462 7.013v15.325h-4.33v-28.573h3.57l.5 5.292h.211q1.588-2.79 3.83-4.3t4.925-1.511Zm27.188 21.3q0 3.983-2.973 6.147t-8.341 2.165q-5.686 0-8.86-1.8v-4.011q2.058 1.039 4.415 1.636 2.357.606 4.55.606 3.387 0 5.215-1.088 1.818-1.077 1.818-3.29 0-1.674-1.443-2.857t-5.647-2.8q-3.983-1.49-5.666-2.597t-2.502-2.511q-.818-1.414-.818-3.367 0-3.492 2.839-5.513t7.792-2.02q4.618 0 9.024 1.876l-1.54 3.521q-4.3-1.77-7.792-1.77-3.078 0-4.646.962-1.559.962-1.559 2.655 0 1.145.587 1.953t1.886 1.54q1.308.73 5.002 2.116 5.09 1.847 6.87 3.723 1.789 1.876 1.789 4.724Z" font-family="Open Sans" font-size="55.49"/><path fill="#ff851b" d="M842.8 77.156v29.334q0 1.635-1.09 2.906c-15.075 17.891-58.622 24.249-94.359 24.249s-79.329-6.358-94.45-24.249a4.54 4.54 0 0 1-1.044-2.906V77.156l88.638 19.163q3.088.817 6.856.772 3.724 0 6.676-.727Z"/><path fill="#ff851b" d="M896.746 47.686c0 5.086-3.36 9.218-8.31 10.308l-15.438 3.36v50.131c6.902 2.634 11.851 11.216 11.897 21.66l-1.09-1.09a13.62 13.62 0 0 0-10.944-3.405l-20.797 2.724c.59-9.627 5.358-17.437 11.852-19.889V63.352L752.074 87.509a22.7 22.7 0 0 1-9.49 0L606.13 57.994a10.444 10.444 0 0 1-8.265-10.308c0-4.995 3.315-9.173 8.265-10.263L742.584 7.908c3.042-.681 6.357-.727 9.49 0l136.363 29.515a10.444 10.444 0 0 1 8.31 10.263M756.978 196.4l.727.045v-43.502l-10.399 1.363-10.353-1.363v43.502l.726-.046-9.445 20.752a4.542 4.542 0 0 0 8.265 3.77l10.852-23.795 10.808 23.794a4.542 4.542 0 0 0 8.264-3.769Zm-29.152-44.592L620.57 137.595a4.54 4.54 0 0 0-3.633 1.135c-7.901 7.175-10.399 26.428-9.4 42.367.5 8.219 2.498 22.75 9.854 27.835q1.18.818 2.588.818h.5l107.346-12.26Zm153.345-8.628q-1.635-2.724-3.496-4.404a4.54 4.54 0 0 0-3.633-1.135l-107.3 14.167v45.727l107.39 12.26q1.681.136 3.089-.817c13.032-9.082 12.26-51.176 3.95-65.752"/><path fill="transparent" stroke="transparent" d="M486.5 0h527v385h-527z"/></g></svg>