<svg xmlns="http://www.w3.org/2000/svg" xml:space="preserve" width="1500" height="1500" stroke="#000" data-id="lg_oXHetU2yQdC3GFQEfo" data-version="1"><path fill="#fff" stroke="transparent" d="M0 0h1500v1500H0z"/><g data-padding="20"><g transform="translate(-654.175 -659.287)scale(1.82552)"><filter id="a" width="176%" height="246%" x="-38%" y="-73%"><feGaussianBlur in="SourceAlpha" stdDeviation="5"/><feOffset dx="2" dy="2" result="oBlur"/><feFlood flood-color="#fff" flood-opacity="0"/><feComposite in2="oBlur" operator="in"/><feMerge><feMergeNode/><feMergeNode in="SourceGraphic"/></feMerge></filter><path d="M730.331 964.325q4.27 0 5.94-1.61 1.66-1.62 1.66-3.96 0-2.5-1.53-3.52-1.54-1.02-5.23-1.92-2.65-.65-4.14-1.38t-1.49-2.43q0-1.34 1.22-2.19 1.23-.85 3.49-.85 2.24 0 3.46.99 1.23.99 1.23 4.23h2.98q0-3.71-1.67-5.49-1.66-1.78-5.97-1.78-4.21 0-5.92 1.59-1.7 1.58-1.7 3.82 0 2.46 1.55 3.55t5.14 1.98q2.69.64 4.17 1.34 1.47.71 1.47 2.47 0 1.44-1.2 2.27-1.21.84-3.49.84-2.29 0-3.48-1-1.19-1.01-1.19-4.35h-2.98q0 3.92 1.65 5.66t6.03 1.74Zm10.34-19.75v19.63h8.24q3.71 0 5.32-2.12 1.6-2.12 1.6-7.69 0-5.59-1.6-7.7-1.6-2.12-5.32-2.12Zm7.46 17.57h-4.51v-15.5h4.51q2.38 0 3.56 1.41 1.18 1.42 1.18 6.34 0 4.9-1.18 6.32-1.18 1.43-3.56 1.43Zm17.68 2.18q4.8-.03 5.87-3.1l.31 2.98h1.73v-9.52h-7.33v1.82h4.26v1.44q-.09 2.25-1.17 3.29t-3.41 1.04q-2.49 0-3.74-1.64-1.25-1.65-1.25-6.21 0-4.9 1.25-6.43t3.74-1.53q2.4 0 3.5 1.33t1.17 4.11h2.98q-.07-3.17-1.76-5.33t-5.9-2.16q-4.44 0-6.21 2.35-1.76 2.35-1.76 7.57 0 5.18 1.74 7.58 1.73 2.41 5.98 2.41Zm18.26-2.18v2.06h11.88v-2.06h-4.44v-17.6h-2.45l-5.09 1.25v2.21l4.6-1.04v15.18Zm20.87 2.27q4.03 0 5.35-1.52 1.31-1.52 1.31-4.27 0-2.02-1.07-3.11-1.08-1.08-3.3-1.14 2.21-.08 3.29-1.22 1.08-1.13 1.08-3.17 0-2.56-1.33-4.06-1.33-1.49-5.33-1.49-3.85 0-5.27 1.72t-1.42 5.37h2.94q0-3.24.95-4.16.96-.91 2.82-.91 1.89 0 2.8.85.9.85.9 3.13 0 1.6-.95 2.29t-3.47.75v1.89q2.52.05 3.47.68t.95 2.27q0 2.37-.88 3.22-.89.84-2.82.84-1.94 0-2.85-.87-.92-.87-.92-3.83h-2.94q0 3.44 1.38 5.09 1.37 1.65 5.31 1.65Z" filter="url(#a)" font-family="Anybody" font-size="29.084"/></g><path fill="#2f2f2f" stroke="null" stroke-width="1.826" d="M314.467 993.183q0 9.547-6.918 14.878-6.937 5.349-18.803 5.349-12.852 0-19.789-3.323v-8.105q4.454 1.88 9.694 2.975 5.257 1.077 10.387 1.077 8.415 0 12.669-3.194 4.253-3.177 4.253-8.872 0-3.76-1.515-6.152-1.497-2.41-5.038-4.436t-10.753-4.6q-10.095-3.615-14.421-8.544-4.327-4.947-4.327-12.925 0-8.36 6.28-13.29 6.28-4.947 16.612-4.947 10.79 0 19.844 3.943l-2.629 7.32q-8.945-3.76-17.415-3.76-6.664 0-10.424 2.885-3.76 2.866-3.76 7.959 0 3.76 1.387 6.152 1.387 2.41 4.673 4.4 3.286 2.007 10.059 4.435 11.373 4.053 15.663 8.708 4.271 4.637 4.271 12.067Zm12.962-34.977h8.306v35.178q0 6.626 3.012 9.876 3.03 3.267 9.456 3.267 8.507 0 12.432-4.637 3.943-4.655 3.943-15.188v-28.496h8.196v54.218h-6.772l-1.187-7.284h-.438q-2.52 4.016-7.01 6.134-4.472 2.136-10.205 2.136-9.894 0-14.823-4.71-4.91-4.692-4.91-15.024Zm97.738 39.431q0 7.558-5.641 11.665t-15.827 4.108q-10.79 0-16.813-3.414v-7.613q3.906 1.972 8.379 3.104 4.472 1.15 8.635 1.15 6.425 0 9.894-2.063 3.45-2.045 3.45-6.243 0-3.177-2.738-5.422-2.757-2.245-10.716-5.312-7.558-2.83-10.752-4.93t-4.747-4.764q-1.551-2.683-1.551-6.39 0-6.626 5.385-10.46t14.787-3.833q8.762 0 17.105 3.56l-2.903 6.681q-8.16-3.359-14.805-3.359-5.823 0-8.799 1.826-2.957 1.825-2.957 5.038 0 2.173 1.113 3.706t3.578 2.92 9.493 4.017q9.657 3.505 13.034 7.065 3.396 3.56 3.396 8.963Zm30.851 9q2.19 0 4.217-.329t3.213-.657v6.28q-1.333.639-3.943 1.059-2.592.42-4.673.42-15.718 0-15.718-16.576v-32.239h-7.777v-3.961l7.777-3.414 3.45-11.574h4.765v12.56h15.717v6.39H447.33v31.89q0 4.893 2.318 7.522t6.371 2.629Zm57.687 5.787h-6.098l-1.624-7.722h-.402q-4.053 5.093-8.087 6.9-4.016 1.808-10.059 1.808-8.068 0-12.632-4.163-4.582-4.144-4.582-11.81 0-16.43 26.269-17.215l9.2-.293v-3.377q0-6.37-2.756-9.42-2.738-3.03-8.78-3.03-6.773 0-15.317 4.144l-2.537-6.28q4.016-2.172 8.78-3.413 4.783-1.242 9.584-1.242 9.694 0 14.367 4.308t4.674 13.801Zm-24.645-5.787q7.667 0 12.049-4.217 4.38-4.199 4.38-11.756v-4.911l-8.214.347q-9.785.347-14.111 3.048t-4.327 8.38q0 4.454 2.684 6.772 2.701 2.337 7.54 2.337Zm49.764-48.431v54.218h-8.215v-54.218Zm-8.909-14.696q0-2.811 1.388-4.125t3.468-1.315q1.972 0 3.414 1.351 1.424 1.333 1.424 4.09 0 2.774-1.424 4.143-1.442 1.351-3.414 1.351-2.081 0-3.468-1.35-1.388-1.37-1.388-4.145Zm71.634 68.914h-8.215v-35.069q0-6.626-3.012-9.894-3.03-3.268-9.456-3.268-8.507 0-12.469 4.6-3.943 4.601-3.943 15.19v28.44h-8.215v-54.217h6.682l1.332 7.43h.384q2.537-4.017 7.083-6.207 4.545-2.209 10.131-2.209 9.803 0 14.75 4.728 4.948 4.71 4.948 15.097Zm56.28 0h-6.079l-1.642-7.722h-.384q-4.07 5.093-8.087 6.9-4.034 1.808-10.077 1.808-8.05 0-12.632-4.163-4.582-4.144-4.582-11.81 0-16.43 26.269-17.215l9.2-.293v-3.377q0-6.37-2.738-9.42-2.756-3.03-8.78-3.03-6.773 0-15.335 4.144l-2.52-6.28q3.999-2.172 8.782-3.413 4.764-1.242 9.565-1.242 9.694 0 14.367 4.308t4.673 13.801Zm-24.626-5.787q7.667 0 12.03-4.217 4.382-4.199 4.382-11.756v-4.911l-8.215.347q-9.785.347-14.111 3.048t-4.327 8.38q0 4.454 2.702 6.772 2.683 2.337 7.54 2.337Zm66.76-49.326q10.697 0 16.593 7.302 5.915 7.302 5.915 20.647 0 13.363-5.951 20.756-5.97 7.394-16.558 7.394-5.275 0-9.657-1.954t-7.356-6.006h-.585l-1.734 6.974h-5.878V935.46h8.197v18.693q0 6.28-.384 11.282h.384q5.75-8.124 17.013-8.124Zm-1.187 6.882q-8.398 0-12.103 4.82-3.724 4.82-3.724 16.247t3.815 16.357q3.815 4.91 12.213 4.91 7.576 0 11.281-5.513t3.706-15.845q0-10.588-3.706-15.791-3.705-5.185-11.482-5.185Zm46.259-28.733v76.964h-8.215V935.46Zm40.307 77.95q-12.012 0-18.967-7.32t-6.955-20.337q0-13.107 6.462-20.811 6.444-7.722 17.324-7.722 10.205 0 16.138 6.7t5.933 17.689v5.184h-37.35q.255 9.548 4.819 14.495 4.582 4.947 12.888 4.947 8.763 0 17.324-3.65v7.32q-4.363 1.862-8.251 2.683-3.87.822-9.365.822Zm-2.227-49.308q-6.535 0-10.406 4.254-3.888 4.253-4.582 11.756h28.35q0-7.758-3.468-11.884t-9.894-4.126Zm104.511 29.08q0 9.548-6.919 14.879-6.937 5.349-18.803 5.349-12.851 0-19.788-3.323v-8.105q4.454 1.88 9.693 2.975 5.258 1.077 10.387 1.077 8.416 0 12.67-3.194 4.253-3.177 4.253-8.872 0-3.76-1.515-6.152-1.497-2.41-5.039-4.436t-10.752-4.6q-10.095-3.615-14.421-8.544-4.327-4.947-4.327-12.925 0-8.36 6.28-13.29 6.28-4.947 16.612-4.947 10.789 0 19.843 3.943l-2.628 7.32q-8.945-3.76-17.397-3.76-6.682 0-10.442 2.885-3.761 2.866-3.761 7.959 0 3.76 1.387 6.152 1.388 2.41 4.674 4.4 3.286 2.007 10.058 4.435 11.373 4.053 15.663 8.708 4.272 4.637 4.272 12.067Zm35.214 20.228q-11.774 0-18.218-7.248-6.463-7.247-6.463-20.5 0-13.6 6.554-21.03 6.553-7.412 18.675-7.412 3.907 0 7.813.84t6.134 1.971l-2.52 6.974q-2.72-1.077-5.932-1.79-3.213-.73-5.696-.73-16.52 0-16.52 21.067 0 10.004 4.034 15.334 4.034 5.35 11.938 5.35 6.791 0 13.91-2.922v7.266q-5.44 2.83-13.709 2.83Zm71.871-.986h-8.215v-35.069q0-6.626-3.012-9.894t-9.438-3.268q-8.562 0-12.505 4.656-3.925 4.636-3.925 15.224v28.35h-8.214V935.46h8.214v23.293q0 4.2-.401 6.974h.493q2.428-3.907 6.9-6.152 4.491-2.264 10.223-2.264 9.93 0 14.915 4.728 4.965 4.728 4.965 15.006Zm63.656-27.164q0 13.253-6.681 20.701-6.664 7.449-18.438 7.449-7.284 0-12.907-3.414-5.64-3.414-8.707-9.803-3.067-6.371-3.067-14.933 0-13.253 6.626-20.647t18.402-7.393q11.373 0 18.072 7.558 6.7 7.576 6.7 20.482Zm-41.293 0q0 10.387 4.144 15.827 4.162 5.44 12.23 5.44 8.051 0 12.232-5.403 4.18-5.422 4.18-15.864 0-10.332-4.18-15.7t-12.341-5.367q-8.05 0-12.158 5.294t-4.107 15.773Zm63.893-49.8v76.964h-8.197V935.46Zm56.847 76.964h-6.098l-1.624-7.722h-.402q-4.053 5.093-8.087 6.9t-10.059 1.808q-8.068 0-12.632-4.163-4.582-4.144-4.582-11.81 0-16.43 26.269-17.215l9.2-.293v-3.377q0-6.37-2.756-9.42-2.738-3.03-8.78-3.03-6.773 0-15.335 4.144l-2.52-6.28q4.017-2.172 8.781-3.413 4.783-1.242 9.566-1.242 9.694 0 14.367 4.308 4.692 4.309 4.692 13.801Zm-24.645-5.787q7.667 0 12.048-4.217 4.382-4.199 4.382-11.756v-4.911l-8.215.347q-9.785.347-14.13 3.048-4.326 2.702-4.326 8.38 0 4.454 2.702 6.772 2.701 2.337 7.54 2.337Zm66.285-49.417q3.614 0 6.48.584l-1.15 7.63q-3.359-.748-5.933-.748-6.572 0-11.245 5.35-4.673 5.33-4.673 13.307v29.08h-8.215v-54.217h6.773l.949 10.04h.401q3.013-5.294 7.266-8.16t9.347-2.866Zm51.589 40.417q0 7.558-5.64 11.665t-15.828 4.108q-10.789 0-16.813-3.414v-7.613q3.906 1.972 8.379 3.104 4.472 1.15 8.635 1.15 6.425 0 9.894-2.063 3.45-2.045 3.45-6.243 0-3.177-2.738-5.422t-10.716-5.312q-7.558-2.83-10.752-4.93t-4.747-4.764q-1.551-2.683-1.551-6.39 0-6.626 5.385-10.46t14.787-3.833q8.762 0 17.123 3.56l-2.92 6.681q-8.16-3.359-14.787-3.359-5.842 0-8.818 1.826-2.957 1.825-2.957 5.038 0 2.173 1.114 3.706t3.578 2.92q2.482 1.388 9.492 4.017 9.657 3.505 13.034 7.065 3.396 3.56 3.396 8.963Z" font-family="Open Sans" font-size="55.49"/><path fill="#979797" stroke="none" d="M926.092 531.131v55.662q0 3.102-2.068 5.515c-28.606 33.949-111.238 46.012-179.05 46.012s-150.53-12.063-179.222-46.012a8.62 8.62 0 0 1-1.982-5.515v-55.662l168.193 36.362q5.86 1.55 13.011 1.464 7.066 0 12.667-1.378Z"/><path fill="#979797" stroke="none" d="M1028.456 475.21c0 9.65-6.376 17.492-15.768 19.56l-29.296 6.376v95.125c13.097 4.998 22.489 21.283 22.575 41.101l-2.068-2.068a25.85 25.85 0 0 0-20.765-6.462l-39.464 5.17c1.12-18.267 10.168-33.088 22.49-37.74v-91.335l-212.224 45.84a43.1 43.1 0 0 1-18.009 0L477.003 494.77a19.82 19.82 0 0 1-15.682-19.56c0-9.478 6.29-17.405 15.682-19.473l258.924-56.007c5.773-1.292 12.063-1.379 18.009 0l258.752 56.007a19.82 19.82 0 0 1 15.768 19.473M763.241 757.4l1.379.085V674.94l-19.732 2.585-19.645-2.585v82.545l1.378-.086-17.922 39.377a8.618 8.618 0 0 0 15.682 7.152l20.593-45.15 20.508 45.15a8.618 8.618 0 0 0 15.681-7.152Zm-55.317-84.614-203.52-26.97a8.62 8.62 0 0 0-6.894 2.154c-14.993 13.614-19.732 50.148-17.836 80.392.948 15.596 4.739 43.168 18.698 52.819q2.24 1.55 4.911 1.55h.948l203.693-23.264Zm290.978-16.372q-3.102-5.17-6.635-8.358a8.62 8.62 0 0 0-6.893-2.154l-203.607 26.884v86.767l203.78 23.265q3.187.258 5.858-1.551c24.73-17.233 23.265-97.108 7.497-124.766"/><path fill="transparent" stroke="transparent" stroke-width="1.898" d="M250 384.725h1000v730.55H250z"/></g></svg>